<?xml version="1.0" encoding="utf-8"?>
<!-- Generator: Adobe Illustrator 26.5.0, SVG Export Plug-In . SVG Version: 6.00 Build 0)  -->
<svg version="1.0"
	 id="svg8" xmlns:inkscape="http://www.inkscape.org/namespaces/inkscape" xmlns:rdf="http://www.w3.org/1999/02/22-rdf-syntax-ns#" xmlns:svg="http://www.w3.org/2000/svg" xmlns:cc="http://creativecommons.org/ns#" xmlns:sodipodi="http://sodipodi.sourceforge.net/DTD/sodipodi-0.dtd" xmlns:dc="http://purl.org/dc/elements/1.1/" inkscape:version="0.92.4 (5da689c313, 2019-01-14)"
	 xmlns="http://www.w3.org/2000/svg" xmlns:xlink="http://www.w3.org/1999/xlink" x="0px" y="0px" viewBox="0 0 1188 751.88"
	 style="enable-background:new 0 0 1188 751.88;" xml:space="preserve">
<style type="text/css">
	.st0{fill:#AB1E40;}
	.st1{fill:#FFFFFF;}
</style>
<sodipodi:namedview  bordercolor="#111111" borderopacity="1" fit-margin-bottom="0" fit-margin-left="0" fit-margin-right="0" fit-margin-top="0" gridtolerance="10" guidetolerance="10" id="namedview10" inkscape:current-layer="svg8" inkscape:cx="841.45201" inkscape:cy="506.94743" inkscape:guide-bbox="true" inkscape:pageopacity="0" inkscape:pageshadow="2" inkscape:window-height="1017" inkscape:window-maximized="1" inkscape:window-width="1920" inkscape:window-x="1912" inkscape:window-y="-8" inkscape:zoom="0.5" objecttolerance="10" pagecolor="#ffffff" showgrid="false" showguides="true">
	<inkscape:grid  id="grid29" originx="23" originy="272.84755" type="xygrid"></inkscape:grid>
	<sodipodi:guide  id="guide986" inkscape:locked="false" orientation="0,1" position="594.20684,261.12618"></sodipodi:guide>
</sodipodi:namedview>
<path id="polygon951" inkscape:connector-curvature="0" sodipodi:nodetypes="ccccccccc" d="M681.91,198h87.97v27.47h-26.07v67.29
	H708.1v-67.29h-26.18V198z"/>
<path id="polygon953" inkscape:connector-curvature="0" sodipodi:nodetypes="cccccccc" d="M820.28,235.44l-20.43,57.31h-36.38
	L800.1,198h40.33l36.68,94.75h-36.18L820.28,235.44z"/>
<path id="path984" inkscape:connector-curvature="0" sodipodi:nodetypes="cccccccc" d="M631.38,235.44l-20.43,57.31h-36.38
	L611.2,198h40.33l36.68,94.75h-36.18L631.38,235.44z"/>
<path id="rect922" class="st0" d="M158.87,200.47h218.21c35.83,0,64.87,29.05,64.87,64.87v218.21c0,35.83-29.05,64.87-64.87,64.87
	H158.87c-35.83,0-64.87-29.05-64.87-64.87V265.34C94,229.51,123.05,200.47,158.87,200.47z"/>
<path id="path306" inkscape:connector-curvature="0" d="M1052.1,444.7c0.53-36.11-29.14-66.61-65.46-67.3
	c-37.18-0.71-68.78,29.76-69.73,67.22c-0.88,35.07,30.52,66.9,66.5,67.38C1021.62,512.52,1051.55,483.19,1052.1,444.7
	 M1066.29,503.49c7.48,7.32,14.96,14.69,22.52,21.98c4.91,4.75,6.28,10.49,4.34,16.83c-2.02,6.65-6.91,10.42-13.74,11.41
	c-5.64,0.82-10.28-1.53-14.2-5.38c-6.26-6.16-12.56-12.27-18.58-18.65c-2.47-2.63-4.1-3.06-7.41-0.97
	c-17.31,10.93-36.31,16.17-56.84,15.95c-47.07-0.51-88.63-36.83-96.49-83.37c-9.57-56.66,31.94-106.68,83.24-114.98
	c54.01-8.75,105.73,28.01,114.13,81.91c3.98,25.56-0.68,49.49-14.78,71.4C1067.83,500.64,1067.28,501.74,1066.29,503.49"/>
<path id="path310" inkscape:connector-curvature="0" d="M525.95,446.19c0.5,13.11,1.74,25.96,5.84,38.44
	c6.35,19.36,20.22,29.4,39.94,31.4c7.96,0.81,16.16,0.44,24.15-0.36c13.15-1.33,23.32-8.59,32.75-17.45
	c3.33-3.14,8.14-5.78,12.59-6.42c5.88-0.84,10.65,2.75,13.4,8.32c2.88,5.84,1.93,11.18-2.09,16.1
	c-10.7,13.12-24.66,21.11-40.76,25.54c-23.11,6.37-46.14,5.87-68.77-2.06c-20.24-7.1-34.41-21.15-41.54-41.16
	c-12.28-34.5-12.71-69.55-0.04-103.98c11.09-30.13,34.67-44.47,65.73-48.11c16.64-1.95,32.92-0.91,48.82,4.35
	c13.46,4.45,24.84,12.09,33.54,23.41c3.28,4.28,5.69,8.96,4.38,14.61c-2.66,11.51-16.43,15.52-25.33,7.39
	c-4.26-3.9-8.21-8.24-12.86-11.61c-17.07-12.38-46.52-13.26-64.44-2.15c-13.76,8.53-19.62,22.06-22.35,37.13
	C527.33,428.35,526.91,437.32,525.95,446.19"/>
<path id="path314" inkscape:connector-curvature="0" d="M716.39,511.68h7.01c20.37,0,40.74-0.07,61.11,0.02
	c7.73,0.03,12.93,3.63,15.07,9.98c2.1,6.16,0.61,12.67-4.58,16.59c-2.35,1.79-5.66,3.24-8.54,3.27
	c-29.32,0.26-58.64,0.37-87.96,0.15c-9.07-0.07-14.75-6.58-14.76-15.79c-0.05-53.91-0.05-107.82,0-161.72c0-9.8,7-16.8,16.4-16.72
	c9.41,0.08,16.22,7.11,16.22,16.97c0.04,46.72,0.02,93.42,0.02,140.13L716.39,511.68z"/>
<path id="path334" inkscape:connector-curvature="0" d="M857.32,471.44c0,17.39,0.08,34.78-0.03,52.18
	c-0.08,12.23-8.04,19.51-19.33,17.96c-5.98-0.82-11.59-5.8-12.85-11.66c-0.48-2.2-0.72-4.52-0.72-6.79
	c-0.04-34.07-0.03-68.15-0.03-102.23c0-6.75,1.26-12.88,7.54-16.89c10.14-6.46,23.08-0.79,25.01,11.06c0.34,2.07,0.44,4.2,0.44,6.3
	c0.04,16.69,0.02,33.38,0.02,50.06H857.32z"/>
<path id="path338" inkscape:connector-curvature="0" class="st0" d="M862.18,355.17c6.42,6.42,6.42,16.86,0,23.27
	c-6.42,6.43-16.86,6.43-23.27,0l-20.18-20.17c-6.42-6.42-6.42-16.85-0.01-23.28c6.43-6.42,16.86-6.42,23.27,0L862.18,355.17z"/>
<path id="path306-2" inkscape:connector-curvature="0" class="st1" d="M345,375.6c0.57-39.19-31.62-72.28-71.03-73.03
	c-40.34-0.77-74.64,32.29-75.66,72.94c-0.96,38.06,33.12,72.6,72.16,73.12C311.92,449.19,344.4,417.37,345,375.6 M360.4,439.39
	c8.12,7.94,16.23,15.94,24.44,23.86c5.33,5.16,6.81,11.38,4.71,18.27c-2.2,7.21-7.5,11.31-14.91,12.38
	c-6.12,0.89-11.16-1.66-15.41-5.83c-6.79-6.68-13.63-13.31-20.16-20.24c-2.68-2.85-4.44-3.32-8.04-1.05
	c-18.79,11.86-39.4,17.54-61.68,17.31c-51.08-0.55-96.18-39.97-104.71-90.46c-10.39-61.48,34.66-115.76,90.32-124.77
	c58.61-9.49,114.73,30.39,123.84,88.88c4.32,27.74-0.74,53.71-16.04,77.48C362.06,436.31,361.47,437.49,360.4,439.39"/>
<path id="path995" inkscape:connector-curvature="0" sodipodi:nodetypes="ccccccccc" d="M493.22,198h87.97v27.47h-26.07v67.29H519.4
	v-67.29h-26.18V198z"/>
</svg>
